<?xml version="1.0" encoding="utf-8"?>
<svg viewBox="0 0 1200 880" xmlns="http://www.w3.org/2000/svg" xmlns:bx="https://boxy-svg.com">
  <defs>
    <bx:grid x="0" y="0" width="22" height="22"/>
  </defs>
  <path d="M 184.5 0 L 204.5 0 C 176.886 0 154.5 22.386 154.5 50 L 154.5 830 C 154.5 857.614 176.886 880 204.5 880 L 184.5 880 C 156.886 880 134.5 857.614 134.5 830 L 134.5 50 C 134.5 22.386 156.886 0 184.5 0 Z" style="">
    <title>carta</title>
  </path>
  <g style="visibility: hidden;">
    <path d="M 535.571 704.775 C 580.983 750.185 654.093 750.185 800.315 750.185 C 946.536 750.185 1019.646 750.185 1065.089 704.775 C 1110.5 659.332 1110.5 586.222 1110.5 440 C 1110.5 293.779 1110.5 220.668 1065.089 175.257 C 1019.646 129.815 946.536 129.815 800.315 129.815 C 654.093 129.815 580.983 129.815 535.571 175.257 C 490.129 220.668 490.129 293.779 490.129 440 C 490.129 586.222 490.129 659.332 535.571 704.775 Z" style="" stroke-width="1.5"/>
    <path fill-rule="evenodd" clip-rule="evenodd" d="M 800.315 726 C 665.495 726 598.085 726 556.186 684.129 C 514.315 642.231 514.315 574.82 514.315 440 C 514.315 305.18 514.315 237.77 556.186 195.9 C 598.085 154 665.495 154 800.315 154 C 935.136 154 1002.546 154 1044.416 195.9 C 1086.315 237.77 1086.315 305.18 1086.315 440 C 1086.315 574.82 1086.315 642.231 1044.416 684.129 C 1002.546 726 935.136 726 800.315 726 Z M 707.366 282.701 C 707.366 270.86 697.756 261.251 685.915 261.251 C 674.074 261.251 664.466 270.86 664.466 282.701 L 664.466 318.451 L 628.716 318.451 C 616.875 318.451 607.265 328.061 607.265 339.9 C 607.265 351.769 616.875 361.351 628.716 361.351 L 664.466 361.351 L 664.466 397.1 C 664.466 408.969 674.074 418.551 685.915 418.551 C 697.756 418.551 707.366 408.969 707.366 397.1 L 707.366 361.351 L 743.115 361.351 C 754.956 361.351 764.566 351.769 764.566 339.9 C 764.566 328.061 754.956 318.451 743.115 318.451 L 707.366 318.451 L 707.366 282.701 Z M 857.516 318.451 C 845.675 318.451 836.065 328.061 836.065 339.9 C 836.065 351.769 845.675 361.351 857.516 361.351 L 971.915 361.351 C 983.756 361.351 993.365 351.769 993.365 339.9 C 993.365 328.061 983.756 318.451 971.915 318.451 L 857.516 318.451 Z M 857.516 490.05 C 845.675 490.05 836.065 499.66 836.065 511.501 C 836.065 523.37 845.675 532.95 857.516 532.95 L 971.915 532.95 C 983.756 532.95 993.365 523.37 993.365 511.501 C 993.365 499.66 983.756 490.05 971.915 490.05 L 857.516 490.05 Z M 658.174 496.342 C 649.793 487.964 636.208 487.964 627.828 496.342 C 619.477 504.723 619.477 518.307 627.828 526.687 L 655.571 554.401 L 627.858 582.142 C 619.477 590.522 619.477 604.108 627.858 612.487 C 636.208 620.867 649.793 620.867 658.174 612.487 L 685.915 584.745 L 713.629 612.487 C 722.008 620.867 735.595 620.867 743.974 612.487 C 752.354 604.108 752.354 590.522 743.974 582.142 L 716.231 554.401 L 743.974 526.687 C 752.354 518.307 752.354 504.723 743.974 496.342 C 735.595 487.964 722.008 487.964 713.629 496.342 L 685.915 524.085 L 658.174 496.342 Z M 857.516 575.85 C 845.675 575.85 836.065 585.46 836.065 597.301 C 836.065 609.169 845.675 618.75 857.516 618.75 L 971.915 618.75 C 983.756 618.75 993.365 609.169 993.365 597.301 C 993.365 585.46 983.756 575.85 971.915 575.85 L 857.516 575.85 Z" style="fill: rgb(255, 0, 0);"/>
  </g>
  <path d="M 992.203 318.437 L 864.277 318.437 M 992.203 510.326 L 864.277 510.326 M 992.203 606.27 L 864.277 606.27 M 736.352 318.437 L 672.389 318.437 M 672.389 318.437 L 608.426 318.437 M 672.389 318.437 L 672.389 254.474 M 672.389 318.437 L 672.389 382.4 M 721.361 510.326 L 673.389 558.298 M 673.389 558.298 L 625.417 606.27 M 673.389 558.298 L 625.417 510.326 M 673.389 558.298 L 721.361 606.27" stroke-linecap="round" style="stroke-width: 40px; visibility: hidden;"/>
  <path d="M 149.5 0 L 169.5 0 C 141.886 0 119.5 22.386 119.5 50 L 119.5 830 C 119.5 857.614 141.886 880 169.5 880 L 149.5 880 C 121.886 880 99.5 857.614 99.5 830 L 99.5 50 C 99.5 22.386 121.886 0 149.5 0 Z" style="">
    <title>carta</title>
  </path>
  <rect x="397" width="175" height="50" style="fill: rgb(255, 255, 255); visibility: hidden;" y="70" rx="25" ry="25"/>
  <rect x="397" width="175" height="50" style="fill: rgb(255, 255, 255); visibility: hidden;" y="760" rx="25" ry="25"/>
  <path d="M 535.571 175.257 C 580.899 129.9 653.821 129.815 799.5 129.815 L 799.5 50 C 799.5 22.386 777.114 0 749.5 0 L 219.5 0 C 191.886 0 169.5 22.386 169.5 50 L 169.5 830 C 169.5 857.614 191.886 880 219.5 880 L 749.5 880 C 777.114 880 799.5 857.614 799.5 830 L 799.5 750.185 C 653.821 750.185 580.899 750.101 535.571 704.775 C 511.61 680.814 500.284 649.16 494.929 603.152 C 491.488 603.473 488.01 603.637 484.5 603.637 C 412.227 603.637 353.591 534.093 353.591 461.818 C 353.591 385.455 397.227 276.364 484.5 276.364 C 488.047 276.364 491.522 276.544 494.924 276.895 C 500.276 230.867 511.603 199.209 535.571 175.257 Z M 800.315 129.815 C 946.536 129.815 799.5 129.815 799.5 129.815 C 799.771 129.815 800.043 129.815 800.315 129.815 Z M 422 70 L 547 70 C 560.807 70 572 81.193 572 95 C 572 108.807 560.807 120 547 120 L 422 120 C 408.193 120 397 108.807 397 95 C 397 81.193 408.193 70 422 70 Z M 422 760 L 547 760 C 560.807 760 572 771.193 572 785 C 572 798.807 560.807 810 547 810 L 422 810 C 408.193 810 397 798.807 397 785 C 397 771.193 408.193 760 422 760 Z" style="" stroke-width="1.5"/>
  <path fill-rule="evenodd" clip-rule="evenodd" d="M 800.315 726 C 665.495 726 598.085 726 556.186 684.129 C 514.315 642.231 514.315 574.82 514.315 440 C 514.315 305.18 514.315 237.77 556.186 195.9 C 598.085 154 665.495 154 800.315 154 C 935.136 154 1002.546 154 1044.416 195.9 C 1086.315 237.77 1086.315 305.18 1086.315 440 C 1086.315 574.82 1086.315 642.231 1044.416 684.129 C 1002.546 726 935.136 726 800.315 726 Z M 707.366 282.701 C 707.366 270.86 697.756 261.251 685.915 261.251 C 674.074 261.251 664.466 270.86 664.466 282.701 L 664.466 318.451 L 628.716 318.451 C 616.875 318.451 607.265 328.061 607.265 339.9 C 607.265 351.769 616.875 361.351 628.716 361.351 L 664.466 361.351 L 664.466 397.1 C 664.466 408.969 674.074 418.551 685.915 418.551 C 697.756 418.551 707.366 408.969 707.366 397.1 L 707.366 361.351 L 743.115 361.351 C 754.956 361.351 764.566 351.769 764.566 339.9 C 764.566 328.061 754.956 318.451 743.115 318.451 L 707.366 318.451 L 707.366 282.701 Z M 857.516 318.451 C 845.675 318.451 836.065 328.061 836.065 339.9 C 836.065 351.769 845.675 361.351 857.516 361.351 L 971.915 361.351 C 983.756 361.351 993.365 351.769 993.365 339.9 C 993.365 328.061 983.756 318.451 971.915 318.451 L 857.516 318.451 Z M 857.516 490.05 C 845.675 490.05 836.065 499.66 836.065 511.501 C 836.065 523.37 845.675 532.95 857.516 532.95 L 971.915 532.95 C 983.756 532.95 993.365 523.37 993.365 511.501 C 993.365 499.66 983.756 490.05 971.915 490.05 L 857.516 490.05 Z M 658.174 496.342 C 649.793 487.964 636.208 487.964 627.828 496.342 C 619.477 504.723 619.477 518.307 627.828 526.687 L 655.571 554.401 L 627.858 582.142 C 619.477 590.522 619.477 604.108 627.858 612.487 C 636.208 620.867 649.793 620.867 658.174 612.487 L 685.915 584.745 L 713.629 612.487 C 722.008 620.867 735.595 620.867 743.974 612.487 C 752.354 604.108 752.354 590.522 743.974 582.142 L 716.231 554.401 L 743.974 526.687 C 752.354 518.307 752.354 504.723 743.974 496.342 C 735.595 487.964 722.008 487.964 713.629 496.342 L 685.915 524.085 L 658.174 496.342 Z M 857.516 575.85 C 845.675 575.85 836.065 585.46 836.065 597.301 C 836.065 609.169 845.675 618.75 857.516 618.75 L 971.915 618.75 C 983.756 618.75 993.365 609.169 993.365 597.301 C 993.365 585.46 983.756 575.85 971.915 575.85 L 857.516 575.85 Z" style=""/>
  <path d="M 115.5 0 L 135.5 0 C 107.886 0 85.5 22.386 85.5 50 L 85.5 830 C 85.5 857.614 107.886 880 135.5 880 L 115.5 880 C 87.886 880 65.5 857.614 65.5 830 L 65.5 50 C 65.5 22.386 87.886 0 115.5 0 Z" style="">
    <title>carta</title>
  </path>
</svg>